<?xml version="1.0" encoding="iso-8859-1"?>
<!-- Generator: Adobe Illustrator 19.0.0, SVG Export Plug-In . SVG Version: 6.00 Build 0)  -->
<svg version="1.1" id="Layer_1" xmlns="http://www.w3.org/2000/svg" xmlns:xlink="http://www.w3.org/1999/xlink" x="0px" y="0px"
	 viewBox="0 0 485.679 485.679" style="enable-background:new 0 0 485.679 485.679;" xml:space="preserve">
<polyline style="fill:#B9E8ED;" points="87.984,131.758 87.984,311.758 347.984,311.758 367.984,311.758 447.984,311.758 
	447.984,307.758 463.984,307.758 463.984,219.758 447.984,219.758 447.984,139.758 367.984,139.758 367.984,112.342 "/>
<ellipse style="fill:#B8CBCD;" cx="270.64" cy="376.494" rx="190.668" ry="47.252"/>
<polyline style="fill:#B9E8ED;" points="387.108,315.934 471.984,315.934 471.984,235.934 436,135.934 373.944,135.934 "/>
<path style="fill:#324654;" d="M471.984,325.934h-84.876v-24h72.876v-65.908l-32.42-90.092h-53.62v-24H436
	c5.064,0,9.576,3.176,11.292,7.936l35.984,100c0.468,1.304,0.708,2.676,0.708,4.064v80
	C483.984,320.562,478.612,325.934,471.984,325.934z"/>
<path style="fill:#B9E8ED;" d="M87.984,131.758v167.964c0,8.796,7.2,16,16,16h20"/>
<g>
	<path style="fill:#324654;" d="M121.68,327.722h-20c-15.436,0-27.984-12.348-27.984-27.788v-168
		c0-6.628,5.356-12.176,11.984-12.176s12,5.372,12,12v167.964c0,2.168,1.832,6.212,4,6.212h20c6.628,0,12,3.16,12,9.788
		C133.68,322.35,128.308,327.722,121.68,327.722z"/>
	<polygon style="fill:#324654;" points="327.984,325.934 207.984,325.934 208,302.146 328,302.146 	"/>
	<path style="fill:#324654;" d="M55.984,221.934H12c-6.628,0-12-5.372-12-12s5.372-12,12-12h43.984c6.628,0,12,5.372,12,12
		S62.612,221.934,55.984,221.934z"/>
</g>
<path style="fill:#B9E8ED;" d="M376,139.934v174.764h100c0.036-1.312,0-1.152,0-1.152v-69.612l-24-68h-76"/>
<g>
	<path style="fill:#324654;" d="M477.676,321.934h-100c-4.42,0-7.996-3.584-7.996-8v-176c0-4.416,3.576-6.764,7.996-6.764
		c4.416,0,8,3.584,8,8l0.004,30.764h68c3.392,0,6.408-0.624,7.54,2.572l24,68c0.304,0.856,0.456,1.756,0.456,2.66l-0.028,69.612
		c0.028,0.432,0.04,0.888,0.024,1.368C485.556,318.482,482.012,321.934,477.676,321.934z M385.68,305.934h84v-60l-20-64h-64V305.934
		z"/>
	<path style="fill:#324654;" d="M55.984,169.934h-23.6c-6.628,0-12-5.372-12-12s5.372-12,12-12h23.6c6.628,0,12,5.372,12,12
		S62.612,169.934,55.984,169.934z"/>
	<path style="fill:#324654;" d="M55.984,273.934h-23.6c-6.628,0-12-5.372-12-12s5.372-12,12-12h23.6c6.628,0,12,5.372,12,12
		S62.612,273.934,55.984,273.934z"/>
</g>
<path style="fill:#B9E8ED;" d="M371.984,131.758l-19.24-52.316c-1.52-4.128-6.364-7.508-10.76-7.508H120.44
	c-4.4,0-9.364,3.332-11.028,7.404l-21.428,52.42"/>
<g>
	<path style="fill:#324654;" d="M371.984,145.762c-4.888,0-9.476-3.008-11.26-7.86l-19.076-51.868
		c-0.044-0.036-0.092-0.072-0.14-0.1H120.824c-0.144,0.072-0.324,0.192-0.448,0.304l-21.28,52.064
		c-2.508,6.136-9.516,9.08-15.648,6.568c-6.136-2.508-9.08-9.512-6.568-15.648l21.428-52.42
		c3.516-8.616,12.828-14.868,22.132-14.868h221.544c9.484,0,18.748,6.46,22.024,15.364l19.236,52.32
		c2.288,6.22-0.9,13.116-7.12,15.404C374.76,145.522,373.356,145.762,371.984,145.762z"/>
	<path style="fill:#324654;" d="M363.984,137.934h-276c-4.42,0-8-3.584-8-8s3.58-8,8-8h276c4.416,0,8,3.584,8,8
		S368.4,137.934,363.984,137.934z"/>
</g>
<path style="fill:#B9E8ED;" d="M219.984,319.722c0,26.756-20.388,46.484-47.144,46.484c-26.756,0-48.856-19.728-48.856-46.484"/>
<path style="fill:#324654;" d="M172.84,378.206c-34.124,0-60.856-25.688-60.856-58.484v-12h24v12
	c0,19.336,16.188,34.484,36.856,34.484c20.364,0,35.144-14.5,35.144-34.484v-12h24v12
	C231.984,353.066,206.556,378.206,172.84,378.206z"/>
<circle style="fill:#B9E8ED;" cx="172.84" cy="316.214" r="44.44"/>
<g>
	<path style="fill:#324654;" d="M172.84,368.658c-28.924,0-52.448-23.528-52.448-52.448c0-28.92,23.528-52.448,52.448-52.448
		c28.92,0,52.448,23.528,52.448,52.448C225.288,345.126,201.76,368.658,172.84,368.658z M172.84,279.758
		c-20.1,0-36.448,16.352-36.448,36.448s16.352,36.448,36.448,36.448c20.096,0,36.448-16.352,36.448-36.448
		S192.936,279.758,172.84,279.758z"/>
	<circle style="fill:#324654;" cx="172.84" cy="316.214" r="16.448"/>
</g>
<path style="fill:#B9E8ED;" d="M415.984,319.722c0,26.756-20.388,42.484-47.144,42.484s-48.856-19.728-48.856-46.484"/>
<path style="fill:#324654;" d="M368.84,374.206c-34.124,0-60.856-25.688-60.856-58.484v-12h24v12
	c0,19.336,16.188,34.484,36.856,34.484c16.988,0,35.144-8.008,35.144-30.484v-12h24v12
	C427.984,351.802,403.664,374.206,368.84,374.206z"/>
<circle style="fill:#B9E8ED;" cx="368.84" cy="316.214" r="44.44"/>
<g>
	<path style="fill:#324654;" d="M368.84,368.658c-28.924,0-52.448-23.528-52.448-52.448c0-28.92,23.528-52.448,52.448-52.448
		s52.448,23.528,52.448,52.448C421.288,345.126,397.76,368.658,368.84,368.658z M368.84,279.758
		c-20.1,0-36.448,16.352-36.448,36.448s16.352,36.448,36.448,36.448s36.448-16.352,36.448-36.448S388.936,279.758,368.84,279.758z"
		/>
	<circle style="fill:#324654;" cx="368.84" cy="316.214" r="16.448"/>
</g>
<circle style="fill:#FFFFFF;" cx="234.396" cy="216.054" r="48"/>
<g>
	<path style="fill:#324654;" d="M242.396,228.05c0,6.6-3.6,12-8,12s-8-5.4-8-12v-24c0-6.6,3.6-12,8-12s8,5.4,8,12V228.05z"/>
	<path style="fill:#324654;" d="M222.396,224.05c-6.6,0-12-3.6-12-8s5.4-8,12-8h24c6.6,0,12,3.6,12,8s-5.4,8-12,8H222.396z"/>
</g>
<g>
</g>
<g>
</g>
<g>
</g>
<g>
</g>
<g>
</g>
<g>
</g>
<g>
</g>
<g>
</g>
<g>
</g>
<g>
</g>
<g>
</g>
<g>
</g>
<g>
</g>
<g>
</g>
<g>
</g>
</svg>
