<?xml version="1.0" encoding="iso-8859-1"?>
<!-- Generator: Adobe Illustrator 19.0.0, SVG Export Plug-In . SVG Version: 6.00 Build 0)  -->
<svg version="1.1" id="Layer_1" xmlns="http://www.w3.org/2000/svg" xmlns:xlink="http://www.w3.org/1999/xlink" x="0px" y="0px"
	 viewBox="0 0 512 512" style="enable-background:new 0 0 512 512;" xml:space="preserve">
<g>
	<path style="fill:#961300;" d="M11.253,164.754c-4.661,0-8.44,3.779-8.44,8.44s3.779,8.44,8.44,8.44h50.952v-16.879H11.253z"/>
	<path style="fill:#961300;" d="M500.747,164.754h-50.952v16.879h50.952c4.661,0,8.44-3.779,8.44-8.44
		S505.408,164.754,500.747,164.754z"/>
</g>
<g>
	<rect x="11.253" y="373.847" style="fill:#0E0A57;" width="88.795" height="92.554"/>
	<rect x="411.952" y="373.847" style="fill:#0E0A57;" width="88.795" height="92.554"/>
</g>
<path style="fill:#E42105;" d="M512,274.21c0-6.189-2.712-15.641-6.031-20.863l-22.551-35.514L448.692,78.356
	c-4.49-18.016-23.349-32.757-41.916-32.757H105.224c-18.567,0-37.427,14.741-41.916,32.757L28.582,217.834L6.031,253.347
	C2.712,258.568,0,268.021,0,274.21l57.693,31.508L0,337.225v59.122h139.883L256,362.533l116.117,33.815H512v-59.122l-57.693-31.508
	L512,274.21z"/>
<path style="fill:#FFFFFF;" d="M466.024,217.834L432.315,82.438c-2.604-10.446-14.776-19.96-25.538-19.96H105.224
	c-10.762,0-22.934,9.514-25.537,19.956l-33.711,135.4H466.024z"/>
<g>
	<path style="fill:#FF7039;" d="M71.196,274.21c17.397,0,31.508,14.1,31.508,31.508c0,17.397-14.111,31.508-31.508,31.508H0V274.21
		H71.196z"/>
	<path style="fill:#FF7039;" d="M512,274.21v63.015h-71.196c-17.397,0-31.508-14.111-31.508-31.508
		c0-17.408,14.111-31.508,31.508-31.508H512z"/>
</g>
<polygon style="fill:#FCDED6;" points="349.612,340.027 372.117,396.347 139.883,396.347 162.388,340.027 "/>
<g>
</g>
<g>
</g>
<g>
</g>
<g>
</g>
<g>
</g>
<g>
</g>
<g>
</g>
<g>
</g>
<g>
</g>
<g>
</g>
<g>
</g>
<g>
</g>
<g>
</g>
<g>
</g>
<g>
</g>
</svg>
