<?xml version="1.0" encoding="iso-8859-1"?>
<!-- Generator: Adobe Illustrator 19.0.0, SVG Export Plug-In . SVG Version: 6.00 Build 0)  -->
<svg version="1.1" id="Layer_1" xmlns="http://www.w3.org/2000/svg" xmlns:xlink="http://www.w3.org/1999/xlink" x="0px" y="0px"
	 viewBox="0 0 512 512" style="enable-background:new 0 0 512 512;" xml:space="preserve">
<g>
	<rect x="329.19" y="332.832" style="fill:#C3C7C9;" width="130.077" height="48.779"/>
	<rect x="52.77" y="332.832" style="fill:#C3C7C9;" width="130.077" height="48.779"/>
</g>
<path style="fill:#445764;" d="M459.267,381.616v65.039c0,0-24.39,56.91-203.249,56.91s-203.248-56.91-203.248-56.91v-65.039
	h130.079v40.65h146.339v-40.65H459.267z"/>
<g>
	<path style="fill:#EF3E25;" d="M434.877,23.899v211.378c0,8.943-7.317,16.26-16.26,16.26H296.668l-56.91,56.91v-56.91H93.42
		c-8.943,0-16.26-7.317-16.26-16.26V23.899c0-8.943,7.317-16.26,16.26-16.26h325.197C427.56,7.64,434.877,14.956,434.877,23.899z"/>
	<polygon style="fill:#EF3E25;" points="239.759,308.447 296.668,251.537 239.759,251.537 	"/>
</g>
<path style="fill:#ED1C25;" d="M223.499,235.277V23.899c0-8.943,7.317-16.26,16.26-16.26H93.42
	c-8.943,0.001-16.26,7.317-16.26,16.26v211.378c0,8.943,7.317,16.26,16.26,16.26h146.339
	C230.816,251.537,223.499,244.22,223.499,235.277z"/>
<path d="M321.134,325.197v89.429H190.87v-89.429H44.716v123.505l0.649,1.516c0.743,1.733,8.13,17.37,38.345,32.478
	C122.598,502.141,180.566,512,256,512s133.402-9.859,172.29-29.303c30.215-15.108,37.602-30.744,38.345-32.478l0.649-1.516V325.197
	H321.134z M60.791,365.661h89.521v-16.075H60.791v-8.315h114.004v32.705H60.791V365.661z M451.211,444.979
	c-4.902,7.504-40.172,50.945-195.21,50.945c-48.942,0-116.887-4.58-162.633-26.401c-22.079-10.531-30.31-21.077-32.577-24.574
	V390.05h114.004v40.651h162.414V390.05h114.004v54.929H451.211z M451.211,349.586H361.69v16.075h89.521v8.315H337.208v-32.705
	h114.004v8.315H451.211z"/>
<rect x="85.273" y="406.497" style="fill:#FFFFFF;" width="32.52" height="16.075"/>
<rect x="134.054" y="406.497" width="16.26" height="16.075"/>
<rect x="361.693" y="406.497" style="fill:#FFFFFF;" width="32.519" height="16.075"/>
<rect x="410.464" y="406.497" width="16.26" height="16.075"/>
<path d="M93.403,259.972h138.301v68.276l68.276-68.276H418.6c13.398,0,24.297-10.9,24.297-24.297V24.296
	C442.897,10.9,431.998,0,418.6,0H93.403C80.005,0,69.106,10.9,69.106,24.296v211.378C69.106,249.072,80.005,259.972,93.403,259.972z
	 M85.18,24.296c0-4.533,3.689-8.222,8.223-8.222H418.6c4.533,0,8.223,3.688,8.223,8.222v211.378c0,4.533-3.689,8.223-8.223,8.223
	H293.321l-45.543,45.543v-45.543H93.403c-4.533,0-8.223-3.689-8.223-8.223V24.296z"/>
<g>
	<path style="fill:#FFFFFF;" d="M166.572,129.893h48.78c2.885,0,5.653-0.508,8.223-1.435v31.987
		c-2.755,3.774-17.08,18.414-73.262,18.414v16.075c31.705,0,55.908-4.433,71.938-13.177c13.282-7.245,16.481-15.191,16.988-16.709
		l0.413-1.238V73.076c0-13.398-10.9-24.297-24.297-24.297h-48.78c-13.398,0-24.297,10.9-24.297,24.297v32.52
		C142.275,118.994,153.174,129.893,166.572,129.893z M158.349,73.076c0-4.533,3.689-8.223,8.223-8.223h48.78
		c4.533,0,8.223,3.689,8.223,8.223v16.26v16.26c0,4.533-3.689,8.223-8.223,8.223h-48.78c-4.533,0-8.223-3.689-8.223-8.223V73.076z"
		/>
	<polygon style="fill:#FFFFFF;" points="353.653,195.025 369.727,195.025 369.727,48.779 321.04,48.779 321.04,64.854 
		353.653,64.854 	"/>
	<polygon style="fill:#FFFFFF;" points="288.613,195.025 304.688,195.025 304.688,48.779 256.001,48.779 256.001,64.854 
		288.613,64.854 	"/>
</g>
<polygon points="117.701,48.594 134.052,48.594 134.052,32.519 101.626,32.519 101.626,81.206 117.701,81.206 "/>
<rect x="101.529" y="97.563" style="fill:#FFFFFF;" width="16.26" height="16.075"/>
<rect x="101.529" y="211.382" width="16.26" height="16.075"/>
<rect x="394.207" y="211.382" width="16.26" height="16.075"/>
<g>
	<rect x="394.207" y="178.858" style="fill:#FFFFFF;" width="16.26" height="16.075"/>
	<rect x="361.693" y="211.382" style="fill:#FFFFFF;" width="16.26" height="16.075"/>
</g>
<rect x="394.207" y="32.519" width="16.26" height="16.075"/>
<g>
</g>
<g>
</g>
<g>
</g>
<g>
</g>
<g>
</g>
<g>
</g>
<g>
</g>
<g>
</g>
<g>
</g>
<g>
</g>
<g>
</g>
<g>
</g>
<g>
</g>
<g>
</g>
<g>
</g>
</svg>
