<?xml version="1.0" encoding="iso-8859-1"?>
<!-- Generator: Adobe Illustrator 19.0.0, SVG Export Plug-In . SVG Version: 6.00 Build 0)  -->
<svg version="1.1" id="Layer_1" xmlns="http://www.w3.org/2000/svg" xmlns:xlink="http://www.w3.org/1999/xlink" x="0px" y="0px"
	 viewBox="0 0 495 495" style="enable-background:new 0 0 495 495;" xml:space="preserve">
<g>
	<path style="fill:#CD2A00;" d="M360.57,226.14c2.819,0,5.616,0.098,8.393,0.27c2.839-12.999,4.277-26.302,4.277-39.789
		c0-102.9-83.72-186.62-186.62-186.62v104.4c44.11,0,80,35.88,80,80c0,44.11-35.89,80-80,80v221.9l53.14-66.813
		c-8.717-17.802-13.619-37.797-13.619-58.918C226.141,286.445,286.446,226.14,360.57,226.14z"/>
	<path style="fill:#D8D7DA;" d="M266.62,184.401c0-44.12-35.89-80-80-80v160C230.73,264.401,266.62,228.511,266.62,184.401z"/>
	<path style="fill:#FF3501;" d="M106.62,184.401c0-44.12,35.89-80,80-80V0.001C83.72,0.001,0,83.721,0,186.621
		c0,42.37,13.9,82.33,40.23,115.62l146.39,184.06v-221.9C142.51,264.401,106.62,228.511,106.62,184.401z"/>
	<path style="fill:#FFFFFF;" d="M106.62,184.401c0,44.11,35.89,80,80,80v-160C142.51,104.401,106.62,140.281,106.62,184.401z"/>
	<path style="fill:#D8D7DA;" d="M404.426,380.57v-40h48.436c-7.804-36.045-36.246-64.487-72.291-72.291v48.436h-20v87.71h20v48.436
		c36.045-7.804,64.487-36.246,72.291-72.291H404.426z"/>
	<path style="fill:#FFFFFF;" d="M340.57,316.714v-48.436c-36.045,7.804-64.487,36.246-72.291,72.291h48.436v40H268.28
		c7.804,36.045,36.246,64.487,72.291,72.291v-48.436h20v-87.71H340.57z"/>
	<path style="fill:#006DF0;" d="M368.963,226.41c-2.777-0.172-5.573-0.27-8.393-0.27c-74.125,0-134.429,60.305-134.429,134.429
		c0,21.121,4.902,41.117,13.619,58.918c21.875,44.673,67.806,75.511,120.81,75.511c74.125,0,134.43-60.305,134.43-134.429
		C495,289.264,439.193,230.758,368.963,226.41z M380.57,452.861v-48.436h-40v48.436c-36.045-7.804-64.487-36.246-72.291-72.291
		h48.436v-40H268.28c7.804-36.045,36.246-64.487,72.291-72.291v48.436h40v-48.436c36.045,7.804,64.487,36.246,72.291,72.291h-48.436
		v40h48.436C445.057,416.615,416.615,445.057,380.57,452.861z"/>
</g>
<g>
</g>
<g>
</g>
<g>
</g>
<g>
</g>
<g>
</g>
<g>
</g>
<g>
</g>
<g>
</g>
<g>
</g>
<g>
</g>
<g>
</g>
<g>
</g>
<g>
</g>
<g>
</g>
<g>
</g>
</svg>
